<svg width="32" height="32" viewBox="0 0 32 32" fill="none" xmlns="http://www.w3.org/2000/svg">
<rect width="32" height="32" fill="#2A1F46"/>
<g clip-path="url(#clip0_408_1875)">
<mask id="mask0_408_1875" style="mask-type:alpha" maskUnits="userSpaceOnUse" x="1" y="9" width="30" height="14">
<rect x="1" y="9.75232" width="29.2817" height="12.7489" fill="url(#paint0_linear_408_1875)"/>
</mask>
<g mask="url(#mask0_408_1875)">
<path d="M26.6118 11.4267L24.9567 10.8738L18.1406 10.8952L16.9607 10.4713L15.9624 10.886L11.6963 10.8743L10.006 10.0992H7.54814L7.16796 10.8741H5.0258L1 17.2851L5.4814 22.3435H25.81L30.2914 17.2851L26.6115 11.4264L26.6118 11.4267ZM25.7066 22.1142H5.58476L1.28596 17.2617L5.15303 11.1034H7.31145L7.69137 10.3286H9.95595L11.6458 11.1034L16.0078 11.1153L16.9666 10.7169L18.1007 11.1245L24.9196 11.1032L26.4609 11.6179L30.0054 17.2612L25.7066 22.1136V22.1142Z" fill="url(#paint1_linear_408_1875)"/>
</g>
<path d="M30.0057 17.2617L25.7066 22.1139H5.58476L1.28595 17.2617L5.15302 11.1034H7.31144L7.69137 10.3286H9.95594L11.6461 11.1034L16.0078 11.1156L16.9665 10.7171L18.1007 11.1247L24.9196 11.1034L26.4609 11.6184L30.0057 17.2617Z" fill="url(#paint2_linear_408_1875)"/>
<path d="M30.0051 17.2617L26.4611 11.6184L24.9193 11.1036L18.1009 11.1245L16.9667 10.7168L16.0075 11.1153L11.6457 11.1036L9.95588 10.3288H7.69156L7.31164 11.1036H5.15347L1.28615 17.2617H3.87224L5.82139 18.7105H8.97813L9.45075 17.2617H11.4984L11.969 15.2117H12.4361L13.0669 14.9369L12.9346 16.3281L14.6788 17.2617H30.0051Z" fill="#4A357D"/>
<path d="M2.65557 16.5047H4.85869L5.23734 15.7783H4.26035L4.95164 14.5664L6.0843 14.154L6.44214 13.4683L5.36407 13.8434L5.93777 12.8375L5.59975 12.3267H6.22932H7.03742L7.28046 11.8607H5.57206L2.65557 16.5047Z" fill="white"/>
<path d="M8.16374 11.0856L6.88479 13.6953L8.43548 14.6157L9.04397 14.9301L8.12311 15.4301L7.47322 17.1238H6.4302L7.5456 14.5453L6.71235 14.047L5.13703 17.2609L6.07135 17.9535H8.42887L9.59684 14.3716L8.0007 13.4932L8.85985 11.5072H9.62783L10.1505 11.7269L9.4112 12.072L8.90658 13.3878L9.76674 13.85L10.553 11.4386L9.7896 11.0856H8.16374Z" fill="white"/>
<path d="M11.0388 11.8607L9.70502 16.5046H10.8953L11.3662 14.4546H12.2784L13.4116 13.9612L13.6216 12.2561L12.747 11.8607H11.0386H11.0388ZM12.5684 12.8509L12.3856 13.8629H11.5023L11.8551 12.3264H12.6632L13.2595 12.569L12.5684 12.8506V12.8509Z" fill="white"/>
<path d="M14.1199 11.8607L13.7359 15.8984L14.8686 16.5046H17.0717L16.7789 12.2561L15.8286 11.8607H14.1202H14.1199ZM15.8446 13.2894L15.873 15.778H14.896L15.0258 12.3264H15.8339L16.4548 12.569L15.8448 13.2894H15.8446Z" fill="white"/>
<path d="M17.4303 12.2579L17.8912 16.5046H19.0815L18.741 14.4546H19.6532L20.0941 16.5046H21.2847L20.7506 14.5453L20.0499 14.2487L20.5913 13.9612L20.0187 11.8607H18.3103L17.4303 12.2579V12.2579ZM19.5262 13.8629H18.643L18.4758 12.8562L17.7866 12.5692L18.3877 12.3267H19.1958L19.5262 13.8631V13.8629Z" fill="white"/>
<path d="M20.4603 12.3267H21.256L22.6759 16.5046H23.8664L22.4067 12.8313L21.5729 12.3211H22.987L22.7823 11.8607H20.3244L20.4603 12.3267Z" fill="white"/>
<path d="M26.9688 13.8499L25.9644 12.2507L24.7962 11.8607H23.0878L23.939 13.6953L26.3677 14.6156L27.031 15.7783H26.0538L25.411 14.5453L24.1021 14.047L24.961 15.8984L26.4327 16.5046H28.6358L27.2962 14.3716L24.8622 13.4931L24.5211 12.8389L23.6249 12.3267H25.0621L25.6673 13.3877L26.9688 13.8499Z" fill="white"/>
<path d="M17.0066 11.3042C16.8819 11.4259 16.7407 11.5386 16.5855 11.641C16.7552 11.7443 16.9164 11.8622 17.067 11.9925C17.1948 11.8622 17.3355 11.7443 17.4868 11.641C17.3136 11.5386 17.1526 11.4259 17.0066 11.3042Z" fill="#E2D45C"/>
<path d="M3.99805 15.9307L4.71295 14.6771C4.44782 14.7073 4.18497 14.7383 3.9244 14.7706L2.93116 16.3523H4.76629L4.98596 15.9307H3.99805V15.9307Z" fill="url(#paint3_linear_408_1875)"/>
<path d="M9.12376 14.2852C8.83983 14.3038 8.55768 14.3236 8.2773 14.3446L8.50942 14.4823L9.27207 14.8762L9.41276 14.4442L9.12376 14.2852V14.2852ZM8.24505 15.537L7.57815 17.2761H6.19837L7.35288 14.6075L7.07505 14.4414C6.93994 14.4531 6.80509 14.465 6.671 14.4775L5.32983 17.2139L6.12168 17.8011H8.31819L9.23093 15.0019L8.24505 15.537V15.537Z" fill="url(#paint4_linear_408_1875)"/>
<path d="M12.6856 14.1113L12.247 14.3022H11.2452L10.7743 16.3522H9.90754L10.5249 14.2024C11.2355 14.1651 11.956 14.1346 12.6856 14.1113Z" fill="url(#paint5_linear_408_1875)"/>
<path d="M16.9084 16.3522H14.9069L13.8972 15.8121L14.0625 14.0752C14.3101 14.0701 14.5585 14.0661 14.8079 14.0628L14.7378 15.9307H16.0272L16.0058 14.0529C16.1199 14.0526 16.2341 14.0524 16.3487 14.0524C16.4828 14.0524 16.6166 14.0526 16.7499 14.0531L16.9084 16.3522V16.3522Z" fill="url(#paint6_linear_408_1875)"/>
<path d="M21.0853 16.3522H20.2173L19.7764 14.3023H18.5612L18.9018 16.3522H18.0279L17.7793 14.0612C18.5229 14.0704 19.2586 14.0869 19.9854 14.1103L19.6957 14.2642L20.6231 14.6568L21.0853 16.3522V16.3522Z" fill="url(#paint7_linear_408_1875)"/>
<path d="M22.8014 14.2372C22.553 14.2228 22.3034 14.209 22.0525 14.1964L22.7851 16.3522H23.642L22.8014 14.2372Z" fill="url(#paint8_linear_408_1875)"/>
<path d="M27.2587 14.5981C27.004 14.5715 26.7475 14.5456 26.4889 14.5207L27.2935 15.9307H25.9615L25.3027 14.6672L24.4638 14.3477C24.445 14.3462 24.4265 14.3449 24.4077 14.3437L25.0744 15.7803L26.4628 16.3522H28.3604L27.2587 14.5981V14.5981Z" fill="url(#paint9_linear_408_1875)"/>
<path fill-rule="evenodd" clip-rule="evenodd" d="M13.1389 19.922V19.6086L12.2731 19.9306H12.2714V20.2522H12.2731L13.1389 20.5742V20.2603L12.6952 20.0906L13.1389 19.922V19.922Z" fill="#996DFF"/>
<path fill-rule="evenodd" clip-rule="evenodd" d="M18.1537 20.5579V20.2445L18.5971 20.0759L18.1537 19.9073V19.5939L19.0181 19.9156H19.0202V20.2374H19.0181L18.1537 20.5577V20.5579ZM17.7824 19.1512L17.2739 20.7832H17.5759L18.0843 19.1512H17.7824Z" fill="#996DFF"/>
<path fill-rule="evenodd" clip-rule="evenodd" d="M14.411 19.5494C14.4969 19.6439 14.5421 19.7683 14.5367 19.8958V20.5909H14.2348V19.9596C14.2383 19.8892 14.2157 19.8201 14.1718 19.7653C14.1299 19.7165 14.0679 19.6896 14.0037 19.6924C13.8147 19.6924 13.72 19.8234 13.72 20.0858V20.5912H13.418V19.4499H13.72V19.553C13.8157 19.4598 13.9458 19.4102 14.0794 19.4158C14.2038 19.4105 14.3247 19.4593 14.4108 19.5494H14.411Z" fill="white"/>
<path fill-rule="evenodd" clip-rule="evenodd" d="M14.921 18.9752V20.6072H15.2229V18.9752H14.921Z" fill="white"/>
<path fill-rule="evenodd" clip-rule="evenodd" d="M16.929 20.5475H16.6771L16.4302 19.8752L16.1811 20.5475H15.9297L15.5066 19.4041H15.8291L16.0668 20.0878L16.3119 19.4041H16.5473L16.7924 20.0901L17.0301 19.4041H17.3526L16.929 20.5475V20.5475Z" fill="white"/>
<path d="M2.23099 10.6646C2.57282 9.83894 3.26309 9.18829 4.28198 8.7309C5.25821 8.29256 6.49525 8.04876 7.95833 8.0066C10.9576 7.92 14.5783 8.68747 18.1528 10.1683C18.4099 10.2747 18.6646 10.3839 18.9165 10.4959L18.5602 10.4969C18.4073 10.4307 18.2532 10.3654 18.0977 10.3011C10.7742 7.26783 3.7159 7.45551 2.36381 10.7197C1.9722 11.6649 2.10147 12.7658 2.66069 13.927C4.03183 16.7759 7.99033 19.9862 13.1935 22.1413C13.6968 22.3498 14.2007 22.5439 14.7038 22.7234C17.7562 23.8134 20.7709 24.3658 23.3288 24.2919C24.7731 24.2502 25.9914 24.0107 26.9503 23.5803C27.9349 23.1384 28.6001 22.5134 28.9274 21.7228C29.2228 21.0094 29.2218 20.2074 28.963 19.3577L29.0734 19.233C29.3767 20.1696 29.3726 21.0247 29.0605 21.7779C28.7184 22.6035 28.0284 23.2542 27.0092 23.7116C26.033 24.1499 24.7962 24.3937 23.3331 24.4359C23.1803 24.4402 23.0259 24.4425 22.8699 24.4425C20.2915 24.4425 17.2965 23.8414 14.2832 22.7234C13.9015 22.582 13.5198 22.4321 13.1384 22.2742C9.56387 20.7936 6.46097 18.7763 4.40134 16.5941C3.59146 15.7359 2.97789 14.8892 2.5713 14.0692C2.47327 13.8718 2.38743 13.6763 2.31378 13.4825C1.91684 12.4385 1.8889 11.4904 2.23099 10.6646V10.6646Z" fill="url(#paint10_linear_408_1875)"/>
<path d="M2.23099 10.6646C2.57282 9.83894 3.26309 9.18829 4.28198 8.7309C5.25821 8.29256 6.49525 8.04876 7.95833 8.0066C10.9576 7.92 14.5783 8.68747 18.1528 10.1683C18.4099 10.2747 18.6646 10.3839 18.9165 10.4959L18.5602 10.4969C18.4073 10.4307 18.2532 10.3654 18.0977 10.3011C10.7742 7.26783 3.7159 7.45551 2.36381 10.7197C1.9722 11.6649 2.10147 12.7658 2.66069 13.927C4.03183 16.7759 7.99033 19.9862 13.1935 22.1413C13.6968 22.3498 14.2007 22.5439 14.7038 22.7234C17.7562 23.8134 20.7709 24.3658 23.3288 24.2919C24.7731 24.2502 25.9914 24.0107 26.9503 23.5803C27.9349 23.1384 28.6001 22.5134 28.9274 21.7228C29.2228 21.0094 29.2218 20.2074 28.963 19.3577L29.0734 19.233C29.3767 20.1696 29.3726 21.0247 29.0605 21.7779C28.7184 22.6035 28.0284 23.2542 27.0092 23.7116C26.033 24.1499 24.7962 24.3937 23.3331 24.4359C23.1803 24.4402 23.0259 24.4425 22.8699 24.4425C20.2915 24.4425 17.2965 23.8414 14.2832 22.7234C13.9015 22.582 13.5198 22.4321 13.1384 22.2742C9.56387 20.7936 6.46097 18.7763 4.40134 16.5941C3.59146 15.7359 2.97789 14.8892 2.5713 14.0692C2.47327 13.8718 2.38743 13.6763 2.31378 13.4825C1.91684 12.4385 1.8889 11.4904 2.23099 10.6646V10.6646Z" fill="url(#paint11_radial_408_1875)"/>
<path d="M2.23099 10.6646C2.57282 9.83894 3.26309 9.18829 4.28198 8.7309C5.25821 8.29256 6.49525 8.04876 7.95833 8.0066C10.9576 7.92 14.5783 8.68747 18.1528 10.1683C18.4099 10.2747 18.6646 10.3839 18.9165 10.4959L18.5602 10.4969C18.4073 10.4307 18.2532 10.3654 18.0977 10.3011C10.7742 7.26783 3.7159 7.45551 2.36381 10.7197C1.9722 11.6649 2.10147 12.7658 2.66069 13.927C4.03183 16.7759 7.99033 19.9862 13.1935 22.1413C13.6968 22.3498 14.2007 22.5439 14.7038 22.7234C17.7562 23.8134 20.7709 24.3658 23.3288 24.2919C24.7731 24.2502 25.9914 24.0107 26.9503 23.5803C27.9349 23.1384 28.6001 22.5134 28.9274 21.7228C29.2228 21.0094 29.2218 20.2074 28.963 19.3577L29.0734 19.233C29.3767 20.1696 29.3726 21.0247 29.0605 21.7779C28.7184 22.6035 28.0284 23.2542 27.0092 23.7116C26.033 24.1499 24.7962 24.3937 23.3331 24.4359C23.1803 24.4402 23.0259 24.4425 22.8699 24.4425C20.2915 24.4425 17.2965 23.8414 14.2832 22.7234C13.9015 22.582 13.5198 22.4321 13.1384 22.2742C9.56387 20.7936 6.46097 18.7763 4.40134 16.5941C3.59146 15.7359 2.97789 14.8892 2.5713 14.0692C2.47327 13.8718 2.38743 13.6763 2.31378 13.4825C1.91684 12.4385 1.8889 11.4904 2.23099 10.6646V10.6646Z" fill="url(#paint12_radial_408_1875)"/>
<path d="M2.23099 10.6646C2.57282 9.83894 3.26309 9.18829 4.28198 8.7309C5.25821 8.29256 6.49525 8.04876 7.95833 8.0066C10.9576 7.92 14.5783 8.68747 18.1528 10.1683C18.4099 10.2747 18.6646 10.3839 18.9165 10.4959L18.5602 10.4969C18.4073 10.4307 18.2532 10.3654 18.0977 10.3011C10.7742 7.26783 3.7159 7.45551 2.36381 10.7197C1.9722 11.6649 2.10147 12.7658 2.66069 13.927C4.03183 16.7759 7.99033 19.9862 13.1935 22.1413C13.6968 22.3498 14.2007 22.5439 14.7038 22.7234C17.7562 23.8134 20.7709 24.3658 23.3288 24.2919C24.7731 24.2502 25.9914 24.0107 26.9503 23.5803C27.9349 23.1384 28.6001 22.5134 28.9274 21.7228C29.2228 21.0094 29.2218 20.2074 28.963 19.3577L29.0734 19.233C29.3767 20.1696 29.3726 21.0247 29.0605 21.7779C28.7184 22.6035 28.0284 23.2542 27.0092 23.7116C26.033 24.1499 24.7962 24.3937 23.3331 24.4359C23.1803 24.4402 23.0259 24.4425 22.8699 24.4425C20.2915 24.4425 17.2965 23.8414 14.2832 22.7234C13.9015 22.582 13.5198 22.4321 13.1384 22.2742C9.56387 20.7936 6.46097 18.7763 4.40134 16.5941C3.59146 15.7359 2.97789 14.8892 2.5713 14.0692C2.47327 13.8718 2.38743 13.6763 2.31378 13.4825C1.91684 12.4385 1.8889 11.4904 2.23099 10.6646V10.6646Z" fill="url(#paint13_radial_408_1875)"/>
<path d="M29.0605 10.6646C28.7186 9.83894 28.0284 9.18829 27.0095 8.7309C26.0332 8.29256 24.7962 8.04876 23.3331 8.0066C20.3338 7.92 16.7131 8.68747 13.1386 10.1683C12.8816 10.2747 12.6269 10.3839 12.3749 10.4959L12.7313 10.4969C12.8841 10.4307 13.0383 10.3654 13.1937 10.3011C20.5172 7.26783 27.5756 7.45551 28.9276 10.7197C29.3193 11.6649 29.19 12.7658 28.6308 13.927C27.2596 16.7759 23.3011 19.9862 18.098 22.1413C17.5946 22.3498 17.0908 22.5439 16.5877 22.7234C13.5353 23.8134 10.5205 24.3658 7.96262 24.2919C6.51835 24.2502 5.30009 24.0107 4.34114 23.5803C3.35653 23.1384 2.6914 22.5134 2.36405 21.7228C2.06869 21.0094 2.0697 20.2074 2.32849 19.3577L2.21802 19.233C1.91479 20.1696 1.91885 21.0247 2.23097 21.7779C2.57306 22.6035 3.26307 23.2542 4.28222 23.7116C5.25844 24.1499 6.49524 24.3937 7.95831 24.4359C8.11119 24.4402 8.2656 24.4425 8.42153 24.4425C11 24.4425 13.995 23.8414 17.0082 22.7234C17.3899 22.582 17.7716 22.4321 18.1531 22.2742C21.7276 20.7936 24.8305 18.7763 26.8901 16.5941C27.7 15.7359 28.3136 14.8892 28.7202 14.0692C28.8182 13.8718 28.904 13.6763 28.9777 13.4825C29.3746 12.4385 29.4026 11.4904 29.0605 10.6646V10.6646Z" fill="url(#paint14_linear_408_1875)"/>
<path d="M29.0605 10.6646C28.7186 9.83894 28.0284 9.18829 27.0095 8.7309C26.0332 8.29256 24.7962 8.04876 23.3331 8.0066C20.3338 7.92 16.7131 8.68747 13.1386 10.1683C12.8816 10.2747 12.6269 10.3839 12.3749 10.4959L12.7313 10.4969C12.8841 10.4307 13.0383 10.3654 13.1937 10.3011C20.5172 7.26783 27.5756 7.45551 28.9276 10.7197C29.3193 11.6649 29.19 12.7658 28.6308 13.927C27.2596 16.7759 23.3011 19.9862 18.098 22.1413C17.5946 22.3498 17.0908 22.5439 16.5877 22.7234C13.5353 23.8134 10.5205 24.3658 7.96262 24.2919C6.51835 24.2502 5.30009 24.0107 4.34114 23.5803C3.35653 23.1384 2.6914 22.5134 2.36405 21.7228C2.06869 21.0094 2.0697 20.2074 2.32849 19.3577L2.21802 19.233C1.91479 20.1696 1.91885 21.0247 2.23097 21.7779C2.57306 22.6035 3.26307 23.2542 4.28222 23.7116C5.25844 24.1499 6.49524 24.3937 7.95831 24.4359C8.11119 24.4402 8.2656 24.4425 8.42153 24.4425C11 24.4425 13.995 23.8414 17.0082 22.7234C17.3899 22.582 17.7716 22.4321 18.1531 22.2742C21.7276 20.7936 24.8305 18.7763 26.8901 16.5941C27.7 15.7359 28.3136 14.8892 28.7202 14.0692C28.8182 13.8718 28.904 13.6763 28.9777 13.4825C29.3746 12.4385 29.4026 11.4904 29.0605 10.6646V10.6646Z" fill="url(#paint15_radial_408_1875)"/>
<path d="M29.0605 10.6646C28.7186 9.83894 28.0284 9.18829 27.0095 8.7309C26.0332 8.29256 24.7962 8.04876 23.3331 8.0066C20.3338 7.92 16.7131 8.68747 13.1386 10.1683C12.8816 10.2747 12.6269 10.3839 12.3749 10.4959L12.7313 10.4969C12.8841 10.4307 13.0383 10.3654 13.1937 10.3011C20.5172 7.26783 27.5756 7.45551 28.9276 10.7197C29.3193 11.6649 29.19 12.7658 28.6308 13.927C27.2596 16.7759 23.3011 19.9862 18.098 22.1413C17.5946 22.3498 17.0908 22.5439 16.5877 22.7234C13.5353 23.8134 10.5205 24.3658 7.96262 24.2919C6.51835 24.2502 5.30009 24.0107 4.34114 23.5803C3.35653 23.1384 2.6914 22.5134 2.36405 21.7228C2.06869 21.0094 2.0697 20.2074 2.32849 19.3577L2.21802 19.233C1.91479 20.1696 1.91885 21.0247 2.23097 21.7779C2.57306 22.6035 3.26307 23.2542 4.28222 23.7116C5.25844 24.1499 6.49524 24.3937 7.95831 24.4359C8.11119 24.4402 8.2656 24.4425 8.42153 24.4425C11 24.4425 13.995 23.8414 17.0082 22.7234C17.3899 22.582 17.7716 22.4321 18.1531 22.2742C21.7276 20.7936 24.8305 18.7763 26.8901 16.5941C27.7 15.7359 28.3136 14.8892 28.7202 14.0692C28.8182 13.8718 28.904 13.6763 28.9777 13.4825C29.3746 12.4385 29.4026 11.4904 29.0605 10.6646V10.6646Z" fill="url(#paint16_radial_408_1875)"/>
</g>
<defs>
<linearGradient id="paint0_linear_408_1875" x1="15.6409" y1="15.6823" x2="15.6409" y2="21.9298" gradientUnits="userSpaceOnUse">
<stop stop-color="#D9D9D9"/>
<stop offset="1" stop-color="#D9D9D9" stop-opacity="0"/>
</linearGradient>
<linearGradient id="paint1_linear_408_1875" x1="1" y1="16.2212" x2="30.2917" y2="16.2212" gradientUnits="userSpaceOnUse">
<stop stop-color="#996DFF"/>
<stop offset="0.5" stop-color="#35E8B3"/>
<stop offset="1" stop-color="#E2D45C"/>
</linearGradient>
<linearGradient id="paint2_linear_408_1875" x1="15.6457" y1="17.4453" x2="15.6457" y2="21.9933" gradientUnits="userSpaceOnUse">
<stop stop-color="#28203E"/>
<stop offset="1" stop-color="#121214" stop-opacity="0"/>
</linearGradient>
<linearGradient id="paint3_linear_408_1875" x1="3.95869" y1="14.2703" x2="3.95869" y2="16.0625" gradientUnits="userSpaceOnUse">
<stop stop-color="#A9A9AD"/>
<stop offset="1" stop-color="#A9A9AD" stop-opacity="0"/>
</linearGradient>
<linearGradient id="paint4_linear_408_1875" x1="7.37142" y1="14.2702" x2="7.37142" y2="16.0624" gradientUnits="userSpaceOnUse">
<stop stop-color="#A9A9AD"/>
<stop offset="1" stop-color="#A9A9AD" stop-opacity="0"/>
</linearGradient>
<linearGradient id="paint5_linear_408_1875" x1="11.2967" y1="14.2702" x2="11.2967" y2="16.0625" gradientUnits="userSpaceOnUse">
<stop stop-color="#A9A9AD"/>
<stop offset="1" stop-color="#A9A9AD" stop-opacity="0"/>
</linearGradient>
<linearGradient id="paint6_linear_408_1875" x1="15.4029" y1="14.2703" x2="15.4029" y2="16.0625" gradientUnits="userSpaceOnUse">
<stop stop-color="#A9A9AD"/>
<stop offset="1" stop-color="#A9A9AD" stop-opacity="0"/>
</linearGradient>
<linearGradient id="paint7_linear_408_1875" x1="19.4323" y1="14.2703" x2="19.4323" y2="16.0625" gradientUnits="userSpaceOnUse">
<stop stop-color="#A9A9AD"/>
<stop offset="1" stop-color="#A9A9AD" stop-opacity="0"/>
</linearGradient>
<linearGradient id="paint8_linear_408_1875" x1="22.8474" y1="14.2703" x2="22.8474" y2="16.0625" gradientUnits="userSpaceOnUse">
<stop stop-color="#A9A9AD"/>
<stop offset="1" stop-color="#A9A9AD" stop-opacity="0"/>
</linearGradient>
<linearGradient id="paint9_linear_408_1875" x1="26.384" y1="14.2703" x2="26.384" y2="16.0625" gradientUnits="userSpaceOnUse">
<stop stop-color="#A9A9AD"/>
<stop offset="1" stop-color="#A9A9AD" stop-opacity="0"/>
</linearGradient>
<linearGradient id="paint10_linear_408_1875" x1="27.5771" y1="19.7711" x2="7.7935" y2="19.8727" gradientUnits="userSpaceOnUse">
<stop stop-color="#996DFF"/>
<stop offset="0.5" stop-color="#35E8B3"/>
<stop offset="1" stop-color="#E2D45C"/>
</linearGradient>
<radialGradient id="paint11_radial_408_1875" cx="0" cy="0" r="1" gradientUnits="userSpaceOnUse" gradientTransform="translate(15.4651 23.0256) rotate(15.7611) scale(13.299 22.084)">
<stop stop-color="#171226"/>
<stop offset="1" stop-color="#171226" stop-opacity="0"/>
</radialGradient>
<radialGradient id="paint12_radial_408_1875" cx="0" cy="0" r="1" gradientUnits="userSpaceOnUse" gradientTransform="translate(18.875 10.5691) rotate(-157.036) scale(2.99319 4.97043)">
<stop stop-color="#261945"/>
<stop offset="1" stop-color="#261945" stop-opacity="0"/>
</radialGradient>
<radialGradient id="paint13_radial_408_1875" cx="0" cy="0" r="1" gradientUnits="userSpaceOnUse" gradientTransform="translate(29.1048 19.0239) rotate(76.7293) scale(3.39152 5.63189)">
<stop stop-color="#191326"/>
<stop offset="1" stop-color="#191326" stop-opacity="0"/>
</radialGradient>
<linearGradient id="paint14_linear_408_1875" x1="16.3993" y1="9.82175" x2="20.8213" y2="21.0325" gradientUnits="userSpaceOnUse">
<stop stop-color="#996DFF"/>
<stop offset="0.5" stop-color="#35E8B3"/>
<stop offset="1" stop-color="#E2D45C"/>
</linearGradient>
<radialGradient id="paint15_radial_408_1875" cx="0" cy="0" r="1" gradientUnits="userSpaceOnUse" gradientTransform="translate(12.1018 10.8183) rotate(-19.3523) scale(6.76621 11.2358)">
<stop stop-color="#171225"/>
<stop offset="1" stop-color="#171225" stop-opacity="0"/>
</radialGradient>
<radialGradient id="paint16_radial_408_1875" cx="0" cy="0" r="1" gradientUnits="userSpaceOnUse" gradientTransform="translate(2.23008 19.1796) rotate(67.4706) scale(4.55139 7.55795)">
<stop stop-color="#191327"/>
<stop offset="1" stop-color="#191327" stop-opacity="0"/>
</radialGradient>
<clipPath id="clip0_408_1875">
<rect width="29.2917" height="16.4425" fill="white" transform="translate(1 8)"/>
</clipPath>
</defs>
</svg>
